<?xml version="1.0" encoding="utf-8"?>
<!-- Generator: Adobe Illustrator 21.0.2, SVG Export Plug-In . SVG Version: 6.00 Build 0)  -->
<svg version="1.1" id="Ebene_1" xmlns="http://www.w3.org/2000/svg" xmlns:xlink="http://www.w3.org/1999/xlink" x="0px" y="0px"
	 viewBox="0 0 438 195" style="enable-background:new 0 0 438 195;" xml:space="preserve">
<style type="text/css">
	.st0{fill:#681885;}
	.st1{fill:#6E4189;}
	.st2{fill:none;stroke:#6E4189;stroke-width:2.2622;stroke-miterlimit:10;}
</style>
<path class="st0" d="M85.8,69.5c-1.4,4.1-2.9,8.6-4.5,13.5c-1.7,4.9-3.6,10.5-5.7,16.9c-2.1,6.4-3.7,11.2-4.7,14.3
	c-1,3.1-2.1,6.7-3.3,10.8l-0.6,0.8c-5.8,0-11.7,0.1-17.5,0.3l-0.7-0.7c-1.5-5.4-4.2-14.2-8.3-26.6c-2.1-6.3-5.2-15.8-9.5-28.4
	l0.4-0.8c6.1-0.1,12.4-0.5,18.7-1.2l0.8,0.7c0.4,2.4,2,8.8,4.6,19.1c0.8,3.3,1.6,6.6,2.4,10c0.8,3.4,1.6,6.7,2.3,9.9
	c0.2-1.2,0.7-2.9,1.3-5.2c0.6-2.3,1.1-4,1.4-5.2c0.8-3.1,1.6-6.2,2.4-9.2c0.8-3.1,1.6-6.4,2.4-10c0.9-3.6,1.5-6.4,2-8.5l0.7-0.7
	c8.8-0.2,13.8-0.3,15-0.4L85.8,69.5L85.8,69.5z"/>
<path class="st0" d="M109.5,42.6c-0.2,4.8-0.3,9.7-0.3,14.6l-0.5,0.8c-5.2,0.6-10.8,1.4-17,2.5L91,59.7c0.1-1.4,0.1-3.4,0.1-6.1
	c0-3-0.1-5.9-0.3-8.8l0.6-0.8c3.2-0.3,9.1-1,17.5-2.1L109.5,42.6L109.5,42.6z M110.9,125.1l-0.7,0.7c-6.1,0-12.3,0.1-18.5,0.3
	l-0.7-0.7c0.5-8.3,0.7-17.2,0.7-26.6c0-4.1,0-7.5-0.1-10.4c-0.1-2.8-0.2-5.8-0.4-8.8c-0.2-3-0.5-5.8-0.8-8.4l0.7-0.7
	c4.8-0.7,11-1.8,18.5-3.2l0.7,0.8c-0.2,8.1-0.3,16.1-0.3,24.1C110,104.7,110.3,115.6,110.9,125.1L110.9,125.1L110.9,125.1z"/>
<path class="st0" d="M171.3,125.1l-0.6,0.7c-5.7,0-11.4,0.1-17,0.3l-0.7-0.7v-4c-4.3,3.8-9.2,5.7-14.8,5.7c-2.6,0-5.1-0.5-7.4-1.4
	c-2.3-0.9-4.4-2.2-6.1-4c-1.7-1.7-3.1-3.8-4-6.1c-0.9-2.3-1.4-4.8-1.4-7.4c0-5.3,1.7-9.4,5.2-12.4c3.5-3,7.5-5.1,12.2-6.3
	s10-2.1,16-2.8c-0.1-2.6-0.8-4.3-2-5.2c-1.3-0.9-3.2-1.3-6-1.3c-5.2,0-11.3,1.4-18.4,4.2l-0.7-0.4c0.1-2.7,0.2-4.8,0.3-6.5
	c0.1-1.6,0.1-3.4,0.2-5.4l0.7-0.6c7.2-2.5,14.5-3.8,21.9-3.8c7.9,0,13.5,1.7,16.9,5c3.4,3.3,5.1,8.8,5.1,16.5c0,1.7,0,4.3-0.1,7.9
	c-0.1,3.6-0.1,6.2-0.1,8C170.5,112.4,170.8,119.1,171.3,125.1L171.3,125.1L171.3,125.1z M152.9,110.9V98c-4.5,0.5-8.3,1.4-11.2,2.5
	s-4.4,3.4-4.4,6.7c0,2,0.6,3.6,1.9,4.8c1.3,1.2,2.9,1.8,4.9,1.8C146.9,113.8,149.8,112.8,152.9,110.9L152.9,110.9L152.9,110.9z"/>
<path class="st0" d="M235.7,125.2l-0.5,0.6c-5.8,0-11.7,0.1-17.5,0.3l-0.5-0.7l0.2-4.1c-2.4,2.1-4.7,3.6-6.7,4.5
	c-2,0.9-4.5,1.3-7.5,1.3c-3.8,0-7.1-0.7-10-2.1c-2.9-1.4-5.3-3.4-7.1-5.8c-1.9-2.5-3.3-5.3-4.2-8.6c-0.9-3.3-1.4-6.8-1.4-10.5
	c0-5.1,0.7-9.6,2.1-13.6c1.4-4,3.5-7.3,6.3-9.9c2.8-2.7,6.2-4.7,10.1-6c4-1.3,8.6-2,13.8-2c1,0,1.9,0,2.5,0c0.6,0,1.3,0,2.1,0.1V64
	c0-7.3-0.2-14-0.7-20.4l0.5-0.5c5.1-0.7,11-1.7,17.8-2.9l0.6,0.6c-0.1,5.8-0.2,10.6-0.3,14.4c-0.1,3.8-0.1,7.5-0.2,11.1
	c-0.1,3.7-0.1,8.1-0.2,13.3c-0.1,5.2-0.1,10-0.1,14.4C235,105.1,235.3,115.5,235.7,125.2L235.7,125.2L235.7,125.2z M217.5,97v-8.8
	c0-3,0-5.3-0.1-6.8c-1.4-0.1-2.5-0.2-3.3-0.2c-3.4,0-6.2,0.8-8.4,2.3c-2.2,1.5-3.8,3.6-4.8,6.2c-1,2.6-1.5,5.6-1.5,8.9
	c0,4.3,0.8,8,2.4,11c1.6,3,4.3,4.5,8.3,4.5c2.3,0,4.7-0.9,7.2-2.6c0.1-2.2,0.1-4,0.2-5.7s0.1-2.9,0.1-4
	C217.5,100.8,217.5,99.2,217.5,97L217.5,97L217.5,97z"/>
<path class="st0" d="M298.3,100.8l-0.6,0.7c-5.8,0.1-12,0.2-18.7,0.3c-6.7,0.1-12,0.2-15.9,0.3c1.4,8.3,6.6,12.5,15.7,12.5
	c3,0,5.8-0.4,8.5-1.1c2.7-0.8,5.4-1.9,8.3-3.5l0.8,0.3c-0.2,2.1-0.4,4.2-0.5,6.6c-0.1,2.3-0.2,4.2-0.3,5.5l-0.6,0.9
	c-2.3,0.9-4.4,1.7-6.3,2.3c-1.9,0.6-3.9,1-6,1.2c-2.1,0.3-4.2,0.4-6.4,0.4c-6.4,0-11.9-1.1-16.5-3.4c-4.7-2.3-8.3-5.6-10.7-10.1
	c-2.5-4.5-3.7-9.8-3.7-16.1c0-5.8,1.1-10.9,3.3-15.5c2.2-4.5,5.4-8,9.7-10.5c4.3-2.5,9.3-3.8,15.2-3.8c5.9,0,10.8,1.4,14.5,4.1
	c3.7,2.7,6.4,6.4,8,11.1c1.6,4.7,2.4,10,2.4,16V100.8L298.3,100.8z M281.1,90.4c-0.1-3.3-0.8-6-2.1-8c-1.4-2.1-3.6-3.1-6.6-3.1
	c-2.8,0-4.9,1.2-6.5,3.5c-1.6,2.3-2.4,5-2.6,8C269.1,90.7,275,90.6,281.1,90.4L281.1,90.4L281.1,90.4z"/>
<path class="st0" d="M358.6,100.8l-0.6,0.7c-5.8,0.1-12,0.2-18.7,0.3c-6.7,0.1-12,0.2-15.9,0.3c1.4,8.3,6.6,12.5,15.7,12.5
	c3,0,5.8-0.4,8.5-1.1c2.7-0.8,5.4-1.9,8.3-3.5l0.8,0.3c-0.2,2.1-0.4,4.2-0.5,6.6c-0.1,2.3-0.2,4.2-0.3,5.5l-0.6,0.9
	c-2.3,0.9-4.4,1.7-6.3,2.3c-1.9,0.6-3.9,1-6,1.2c-2.1,0.3-4.2,0.4-6.4,0.4c-6.4,0-11.9-1.1-16.5-3.4c-4.7-2.3-8.3-5.6-10.7-10.1
	c-2.5-4.5-3.7-9.8-3.7-16.1c0-5.8,1.1-10.9,3.3-15.5c2.2-4.5,5.4-8,9.7-10.5c4.3-2.5,9.3-3.8,15.2-3.8c5.9,0,10.8,1.4,14.5,4.1
	c3.7,2.7,6.4,6.4,8,11.1c1.6,4.7,2.4,10,2.4,16V100.8L358.6,100.8z M341.4,90.4c-0.1-3.3-0.8-6-2.1-8c-1.4-2.1-3.6-3.1-6.6-3.1
	c-2.8,0-4.9,1.2-6.5,3.5c-1.6,2.3-2.4,5-2.6,8C329.4,90.7,335.3,90.6,341.4,90.4L341.4,90.4L341.4,90.4z"/>
<path class="st0" d="M95.9,161.7l-0.2,0.2c-1,0-2,0-3,0.1l-0.2-0.2c0.1-1.6,0.1-3.4,0.1-5.6v-3c0-3.9-0.1-7.3-0.2-10.3l0.2-0.2
	c1.7,0,2.7-0.1,3-0.1l0.2,0.2c0,1,0,2.4-0.1,4.3c0,1.9-0.1,3.4-0.1,4.3C95.6,155.4,95.7,158.8,95.9,161.7L95.9,161.7L95.9,161.7z"/>
<path class="st0" d="M111.5,142.8c-0.1,0.5-0.1,1.1-0.1,2l-0.1,0.2c-1.1,0-2.8-0.1-5-0.1c0,1.8-0.1,4.4-0.1,7.9
	c0,3.6,0.1,6.5,0.2,8.8l-0.2,0.2c-1.1,0-2.1,0-3.1,0.1l-0.1-0.2c0-0.6,0.1-1.4,0.1-2.4c0-1,0-1.9,0.1-2.9c0-1,0-2,0-3.1
	c0-1.1,0-2.1,0-3.1c0-1.8,0-3.6-0.1-5.4c-0.8,0-1.6,0-2.3,0.1c-0.7,0-1.6,0-2.8,0.1l-0.2-0.2c0.1-0.7,0.1-1.3,0.1-2l0.2-0.2
	c1.5,0,3.1,0,4.8,0c1.7,0,3.4,0,4.8,0c1.5,0,2.7,0,3.7,0L111.5,142.8L111.5,142.8z"/>
<path class="st0" d="M119.7,153.2c-0.1,0.3-0.1,0.6-0.1,1c0,0.3,0,0.7-0.1,1l-0.2,0.1h-7l-0.2-0.2c0.1-0.6,0.1-1.3,0.2-2l0.2-0.2
	c1.1,0.1,2.3,0.1,3.5,0.1h1.2c0.8,0,1.5,0,2.3-0.1L119.7,153.2L119.7,153.2z"/>
<path class="st0" d="M137.2,142.8c-0.1,1.5-0.1,3.1-0.1,4.7v3.6c0,0.4,0,1.1,0,2c0,0.9,0,1.5,0,2c0,1.6-0.3,2.9-0.8,4
	c-0.5,1.1-1.3,1.9-2.3,2.4c-1.1,0.5-2.4,0.8-4,0.8c-1.1,0-2.2-0.2-3.1-0.5c-1-0.3-1.8-0.8-2.5-1.5c-0.7-0.7-1.2-1.5-1.5-2.6
	c-0.2-0.7-0.3-1.7-0.3-3c0-1.3,0-2.8,0-4.3c0-1.6,0-3,0-4.3c0-1.3,0-2.4,0-3.3l0.2-0.2c0.7,0,1.3,0,1.8,0c0.5,0,0.9,0,1.3,0l0.1,0.2
	c0,0.9,0,1.7-0.1,2.6c0,0.9,0,1.7,0,2.6c0,0.9,0,1.7,0,2.6c0,0.9,0,1.7,0,2.6v1.2c0,1.2,0.1,2.2,0.3,3c0.2,0.8,0.7,1.5,1.4,1.9
	c0.8,0.5,1.7,0.7,2.6,0.7c1.3,0,2.3-0.3,3-1c0.6-0.5,1-1.1,1.1-1.9c0.2-0.8,0.3-1.7,0.3-2.7v-1.3c0-4.6-0.1-8-0.2-10.2l0.1-0.2
	c0.6,0,1.1,0,1.5,0c0.4,0,0.8,0,1,0L137.2,142.8L137.2,142.8z"/>
<path class="st0" d="M153.3,161.7l-0.2,0.2c-1.2,0-2.1,0.1-2.7,0.1l-0.2-0.2c0-1.5,0-3.6,0-6.5v-1.3c0-0.8-0.1-1.5-0.2-2.1
	c-0.1-0.6-0.4-1.1-0.7-1.5c-0.4-0.4-0.9-0.6-1.6-0.6c-0.7,0-1.3,0.1-1.8,0.4c-0.5,0.3-1.1,0.6-1.8,1.1v3c0,1.4,0,2.6,0,3.8
	c0,1.2,0.1,2.4,0.2,3.6l-0.2,0.2c-1.3,0-2.2,0.1-2.9,0.1l-0.1-0.2c0-0.8,0-1.7,0.1-2.5c0-0.8,0-1.7,0-2.5c0-1.5,0-2.9-0.1-4.3
	c-0.1-1.4-0.1-2.8-0.2-4.2l0.2-0.2c1-0.2,1.9-0.3,2.9-0.5l0.2,0.2l0,1.4c0.8-0.6,1.6-1,2.4-1.3c0.7-0.3,1.6-0.4,2.5-0.4
	c0.5,0,0.9,0.1,1.3,0.2c0.4,0.1,0.8,0.3,1.1,0.5c0.3,0.2,0.6,0.5,0.9,0.8c0.3,0.3,0.4,0.7,0.6,1.2c0.2,0.7,0.3,1.6,0.3,2.9v3.2
	C153.2,158.4,153.2,160.2,153.3,161.7L153.3,161.7L153.3,161.7z"/>
<path class="st0" d="M163.4,147.8c-0.1,0.6-0.1,1.3-0.1,1.9l-0.2,0.2c-1.3,0-2.3-0.1-2.9-0.1c0,0.6,0,1.5,0,2.6c0,1.1,0,2.1,0,3.1
	v1.1c0,0.7,0,1.3,0.1,1.8c0.1,0.5,0.2,0.9,0.4,1.1c0.2,0.2,0.6,0.3,1.1,0.3c0.4,0,0.8-0.1,1.3-0.2l0.2,0.1c0,0.2-0.1,0.8-0.1,1.9
	l-0.1,0.2c-0.7,0.2-1.3,0.2-2,0.2c-1.8,0-2.9-0.6-3.4-1.7c-0.1-0.3-0.2-0.7-0.3-1.2c0-0.5-0.1-1-0.1-1.5c0-0.8,0-1.5,0-2.1
	c0-0.5,0-1.2,0-1.9c0-0.8,0-1.4,0-2.1c0-0.6,0-1.2,0-1.6c-0.9,0-1.5,0.1-2,0.1l-0.1-0.2c0-0.4,0.1-1.1,0.1-2l0.2-0.2
	c0.2,0,0.4,0,0.5,0c0.1,0,0.3,0,0.4,0c0.2,0,0.3,0,0.4,0c0.1,0,0.3,0,0.5,0c0-0.7,0-1.8-0.1-3.3l0.1-0.2c0.9-0.2,1.8-0.5,2.8-0.8
	l0.2,0.1c-0.1,1.2-0.1,2.6-0.1,4.1l3-0.1L163.4,147.8L163.4,147.8z"/>
<path class="st0" d="M177.3,155l-0.2,0.2c-0.8,0-1.5,0-2.2,0c-0.7,0-1.5,0-2.6,0H171c-1.4,0-2.5,0-3.2,0c0,1.5,0.4,2.6,1.2,3.5
	c0.8,0.9,1.9,1.3,3.3,1.3c1.7,0,3.1-0.5,4.4-1.6l0.2,0.1c0,0.3-0.1,0.6-0.1,1c0,0.4-0.1,0.9-0.1,1.4l-0.1,0.2
	c-0.8,0.4-1.5,0.6-2.2,0.8c-0.7,0.2-1.4,0.2-2.2,0.2c-1.5,0-2.9-0.3-3.9-0.9c-1.1-0.6-1.9-1.4-2.5-2.5c-0.6-1.1-0.9-2.4-0.9-3.9
	c0-1,0.1-2,0.4-2.9c0.3-0.9,0.7-1.7,1.2-2.4c0.5-0.7,1.2-1.2,2.1-1.6c0.8-0.4,1.8-0.6,2.8-0.6h0.1c1.3,0,2.4,0.3,3.4,1
	c1,0.7,1.7,1.6,2,2.7C177.2,152.1,177.3,153.4,177.3,155L177.3,155L177.3,155z M174.5,153v-0.4c0-0.3-0.1-0.6-0.2-1
	c-0.2-0.7-0.6-1.3-1.1-1.7c-0.5-0.4-1.2-0.6-1.9-0.6c-1,0-1.8,0.4-2.5,1.1c-0.7,0.7-1,1.6-1.1,2.6h3.1c0.6,0,1.2,0,1.7,0
	C173,153,173.7,153,174.5,153L174.5,153L174.5,153z"/>
<path class="st0" d="M187.3,147.6c-0.2,1.1-0.4,2.1-0.5,2.8l-0.2,0.1c-0.4-0.2-0.8-0.2-1.1-0.2c-0.8,0-1.4,0.3-1.7,1
	c-0.3,0.6-0.5,1.4-0.5,2.3c0,3.3,0.1,6,0.2,8.1l-0.1,0.2c-1.3,0-2.3,0.1-2.9,0.1l-0.1-0.2v-1.2c0-0.6,0-1.4,0-2.4c0-1,0-2,0-2.9
	c0-3.2-0.1-5.5-0.3-7l0.2-0.2c1.1-0.2,2.1-0.4,2.8-0.5l0.2,0.2l-0.1,2.3c0.3-0.8,0.8-1.5,1.3-1.9c0.5-0.4,1.2-0.7,2-0.7
	c0.2,0,0.5,0,0.8,0.1L187.3,147.6L187.3,147.6z"/>
<path class="st0" d="M201.6,161.7l-0.2,0.2c-1.2,0-2.1,0.1-2.7,0.1l-0.2-0.2c0-1.5,0-3.6,0-6.5v-1.3c0-0.8-0.1-1.5-0.2-2.1
	c-0.1-0.6-0.4-1.1-0.7-1.5c-0.4-0.4-0.9-0.6-1.6-0.6c-0.7,0-1.3,0.1-1.8,0.4c-0.5,0.3-1.1,0.6-1.8,1.1v3c0,1.4,0,2.6,0,3.8
	c0,1.2,0.1,2.4,0.2,3.6l-0.2,0.2c-1.3,0-2.2,0.1-2.9,0.1l-0.1-0.2c0-0.8,0-1.7,0.1-2.5c0-0.8,0-1.7,0-2.5c0-1.5,0-2.9-0.1-4.3
	c-0.1-1.4-0.1-2.8-0.2-4.2l0.2-0.2c1-0.2,1.9-0.3,2.9-0.5l0.2,0.2l0,1.4c0.8-0.6,1.6-1,2.4-1.3c0.7-0.3,1.6-0.4,2.5-0.4
	c0.5,0,0.9,0.1,1.3,0.2c0.4,0.1,0.8,0.3,1.1,0.5c0.3,0.2,0.6,0.5,0.9,0.8c0.3,0.3,0.4,0.7,0.6,1.2c0.2,0.7,0.3,1.6,0.3,2.9v3.2
	C201.4,158.4,201.4,160.2,201.6,161.7L201.6,161.7L201.6,161.7z"/>
<path class="st0" d="M217.1,155l-0.2,0.2c-0.8,0-1.5,0-2.2,0c-0.7,0-1.5,0-2.6,0h-1.4c-1.4,0-2.5,0-3.2,0c0,1.5,0.4,2.6,1.2,3.5
	c0.8,0.9,1.9,1.3,3.3,1.3c1.7,0,3.1-0.5,4.4-1.6l0.2,0.1c0,0.3-0.1,0.6-0.1,1c0,0.4-0.1,0.9-0.1,1.4l-0.1,0.2
	c-0.8,0.4-1.5,0.6-2.2,0.8c-0.7,0.2-1.4,0.2-2.2,0.2c-1.5,0-2.9-0.3-3.9-0.9c-1.1-0.6-1.9-1.4-2.5-2.5c-0.6-1.1-0.9-2.4-0.9-3.9
	c0-1,0.1-2,0.4-2.9c0.3-0.9,0.7-1.7,1.2-2.4c0.5-0.7,1.2-1.2,2.1-1.6c0.8-0.4,1.8-0.6,2.8-0.6h0.1c1.3,0,2.4,0.3,3.4,1
	c1,0.7,1.7,1.6,2,2.7C216.9,152.1,217.1,153.4,217.1,155L217.1,155L217.1,155z M214.2,153v-0.4c0-0.3-0.1-0.6-0.2-1
	c-0.2-0.7-0.6-1.3-1.1-1.7c-0.5-0.4-1.2-0.6-1.9-0.6c-1,0-1.8,0.4-2.5,1.1c-0.7,0.7-1,1.6-1.1,2.6h3.1c0.6,0,1.2,0,1.7,0
	C212.8,153,213.4,153,214.2,153L214.2,153L214.2,153z"/>
<path class="st0" d="M232.2,161.7l-0.2,0.2c-1.2,0-2.1,0.1-2.7,0.1l-0.2-0.2c0-1,0-1.9,0-2.7c0-0.8,0-1.5,0-2.1c0-0.6,0-1.4,0-2.1
	v-0.9c0-0.8-0.1-1.5-0.2-2.1s-0.4-1.1-0.8-1.5c-0.4-0.4-1-0.6-1.7-0.6c-0.6,0-1.2,0.1-1.8,0.4c-0.6,0.3-1.2,0.6-1.8,1.1v4.4
	c0,1,0,2.1,0.1,3.3c0,1.2,0.1,2.1,0.1,2.8l-0.1,0.2c-1.3,0-2.2,0.1-2.9,0.1l-0.1-0.2c0.1-2.2,0.1-4.7,0.1-7.4v-2.8
	c0-1.6,0-2.9,0-3.9c0-1,0-2.1-0.1-3.3c0-1.2-0.1-2.3-0.2-3.5l0.1-0.2c1.2-0.2,2.2-0.4,3-0.6l0.2,0.2c-0.1,3.6-0.2,6.1-0.2,7.5v1.3
	c0.6-0.4,1.1-0.7,1.6-0.9c0.5-0.2,1-0.4,1.6-0.6c0.5-0.1,1.1-0.2,1.7-0.2c0.9,0,1.7,0.2,2.4,0.7c0.7,0.4,1.2,1.1,1.5,1.9
	c0.1,0.4,0.2,0.8,0.3,1.3c0,0.5,0.1,1,0.1,1.7v3.2C232,158.4,232.1,160.2,232.2,161.7L232.2,161.7L232.2,161.7z"/>
<path class="st0" d="M256.6,161.7l-0.2,0.2c-1.2,0-2.2,0.1-2.8,0.1l-0.2-0.2c0.1-3.1,0.1-5.8,0.1-8.1c0-1.1-0.2-2-0.5-2.8
	c-0.3-0.7-1-1.1-2-1.1c-0.6,0-1.2,0.1-1.8,0.4c-0.6,0.2-1.2,0.6-1.7,1c0.1,0.9,0.2,2,0.2,3.3c0,0.7,0,1.2,0,1.6c0,0.4,0,0.9,0,1.3
	c0,0.4,0,0.7,0,1.1c0,0.3,0,0.7,0,1.1c0,0.4,0,0.7,0,1c0,0.3,0,0.7,0,1.1l-0.1,0.2c-1.2,0-2.2,0.1-2.8,0.1l-0.2-0.2
	c0-0.5,0.1-1,0.1-1.7c0-0.7,0-1.3,0.1-2c0-0.7,0-1.4,0-2.2s0-1.5,0-2.2c0-2.6-0.8-3.9-2.5-3.9c-1.2,0-2.3,0.5-3.4,1.4v5.2
	c0,2.1,0.1,3.9,0.2,5.4l-0.1,0.2c-1.2,0-2.2,0.1-2.8,0.1l-0.2-0.2c0.1-1.5,0.1-3.2,0.1-4.9v-1.7c0-2.7-0.1-5-0.3-6.9l0.1-0.2
	c0.5-0.1,1.5-0.3,2.9-0.5l0.2,0.2l-0.1,1.4c0.6-0.4,1.1-0.7,1.5-0.9c0.4-0.2,0.9-0.4,1.4-0.6c0.5-0.1,1.1-0.2,1.6-0.2
	c1.6,0,2.8,0.7,3.5,2c1.7-1.3,3.4-2,5.2-2c0.9,0,1.8,0.2,2.5,0.7c0.7,0.5,1.2,1.1,1.5,2c0.2,0.5,0.3,1.3,0.3,2.3c0,0.2,0,0.4,0,0.6
	c0,0.1,0,0.3,0,0.5v3.6C256.4,158,256.5,159.6,256.6,161.7L256.6,161.7L256.6,161.7z"/>
<path class="st0" d="M272.1,155l-0.2,0.2c-0.8,0-1.5,0-2.2,0c-0.7,0-1.5,0-2.6,0h-1.4c-1.4,0-2.5,0-3.2,0c0,1.5,0.4,2.6,1.2,3.5
	s1.9,1.3,3.3,1.3c1.7,0,3.1-0.5,4.4-1.6l0.2,0.1c0,0.3-0.1,0.6-0.1,1c0,0.4-0.1,0.9-0.1,1.4l-0.1,0.2c-0.8,0.4-1.5,0.6-2.2,0.8
	c-0.7,0.2-1.4,0.2-2.2,0.2c-1.5,0-2.9-0.3-3.9-0.9c-1.1-0.6-1.9-1.4-2.5-2.5c-0.6-1.1-0.9-2.4-0.9-3.9c0-1,0.1-2,0.4-2.9
	c0.3-0.9,0.7-1.7,1.2-2.4c0.5-0.7,1.2-1.2,2.1-1.6c0.8-0.4,1.8-0.6,2.8-0.6h0.1c1.3,0,2.4,0.3,3.4,1c1,0.7,1.7,1.6,2,2.7
	C271.9,152.1,272.1,153.4,272.1,155L272.1,155L272.1,155z M269.3,153v-0.4c0-0.3-0.1-0.6-0.2-1c-0.2-0.7-0.6-1.3-1.1-1.7
	c-0.5-0.4-1.2-0.6-1.9-0.6c-1,0-1.8,0.4-2.5,1.1c-0.7,0.7-1,1.6-1.1,2.6h3.1c0.6,0,1.2,0,1.7,0C267.8,153,268.5,153,269.3,153
	L269.3,153L269.3,153z"/>
<path class="st0" d="M287.2,161.7l-0.2,0.2c-1.2,0-2.1,0.1-2.7,0.1l-0.2-0.2c0-1.5,0-3.6,0-6.5v-1.3c0-0.8-0.1-1.5-0.2-2.1
	c-0.1-0.6-0.4-1.1-0.7-1.5c-0.4-0.4-0.9-0.6-1.6-0.6c-0.7,0-1.3,0.1-1.8,0.4c-0.5,0.3-1.1,0.6-1.8,1.1v3c0,1.4,0,2.6,0,3.8
	c0,1.2,0.1,2.4,0.2,3.6l-0.2,0.2c-1.3,0-2.2,0.1-2.9,0.1l-0.1-0.2c0-0.8,0-1.7,0.1-2.5c0-0.8,0-1.7,0-2.5c0-1.5,0-2.9-0.1-4.3
	c-0.1-1.4-0.1-2.8-0.2-4.2l0.2-0.2c1-0.2,1.9-0.3,2.9-0.5l0.2,0.2l0,1.4c0.8-0.6,1.6-1,2.4-1.3c0.7-0.3,1.6-0.4,2.5-0.4
	c0.5,0,0.9,0.1,1.3,0.2c0.4,0.1,0.8,0.3,1.1,0.5c0.3,0.2,0.6,0.5,0.9,0.8c0.3,0.3,0.4,0.7,0.6,1.2c0.2,0.7,0.3,1.6,0.3,2.9v3.2
	C287.1,158.4,287.1,160.2,287.2,161.7L287.2,161.7L287.2,161.7z"/>
<path class="st0" d="M300.2,157.6c0,1.1-0.3,1.9-0.8,2.6c-0.6,0.7-1.3,1.2-2.2,1.5c-0.9,0.3-1.9,0.5-2.9,0.5c-0.8,0-1.4-0.1-2-0.2
	c-0.6-0.1-1.3-0.3-2-0.7l-0.2-0.2c0-0.2,0.1-1,0.2-2.3l0.3-0.1c1.2,0.9,2.5,1.3,3.8,1.3c0.7,0,1.4-0.2,2-0.5
	c0.6-0.3,0.9-0.9,0.9-1.5c0-0.7-0.3-1.1-0.8-1.4c-0.5-0.3-1.4-0.6-2.7-1c-1.3-0.4-2.3-0.9-2.9-1.5c-0.6-0.6-1-1.4-1-2.5
	c0-1,0.3-1.8,0.8-2.4c0.5-0.6,1.2-1.1,2-1.4c0.8-0.3,1.7-0.4,2.7-0.4c0.7,0,1.3,0.1,2,0.2s1.3,0.3,1.9,0.6l0.1,0.2
	c-0.1,0.4-0.1,1.2-0.2,2.2l-0.2,0.1c-1.2-0.7-2.4-1.1-3.5-1.1c-0.7,0-1.3,0.1-1.8,0.4c-0.6,0.3-0.8,0.7-0.8,1.3
	c0,0.3,0.1,0.6,0.3,0.8c0.2,0.2,0.4,0.4,0.7,0.6c0.3,0.2,0.6,0.3,0.9,0.4c0.3,0.1,0.6,0.2,0.9,0.3l1,0.3
	C299.1,154.3,300.2,155.7,300.2,157.6L300.2,157.6L300.2,157.6z"/>
<path class="st0" d="M315.6,154.3c0,1.8-0.5,3.4-1.4,4.7c-0.9,1.3-2.3,2.2-4,2.6c-0.9,0.2-2,0.4-3.3,0.4h-1.7c-0.4,0-0.7,0-1,0
	c-0.3,0-0.7,0-1.2,0l-0.2-0.2c0-1,0.1-2,0.1-3c0-1,0-2.3,0-3.8V152c0-1,0-2.2,0-3.4c0-1.2,0-2.1,0-2.8c-0.1-2.3-0.1-3.9-0.3-4.9
	l0.1-0.2c0.5-0.1,1.4-0.3,2.9-0.6l0.2,0.2c0,0.9,0,1.8,0,2.7c0,0.9,0,1.9,0,3c0,1.1,0,1.9-0.1,2.5c0.7-0.4,1.3-0.7,1.9-0.9
	c0.6-0.2,1.2-0.3,1.9-0.3c1.3,0,2.4,0.3,3.3,0.9c0.9,0.6,1.6,1.4,2.1,2.5C315.4,151.8,315.6,153,315.6,154.3L315.6,154.3
	L315.6,154.3z M312.7,154.2c0-1.3-0.3-2.4-1-3.3c-0.7-0.9-1.7-1.4-2.9-1.4c-0.9,0-1.9,0.3-2.9,1c0,0.4,0,0.9,0,1.7v1.1
	c0,1.1,0,2.1,0,3.2c0,1.1,0,2.1,0.1,3.2c0.6,0,1,0.1,1.3,0.1c0.9,0,1.7-0.1,2.4-0.4c0.7-0.3,1.3-0.6,1.7-1.1
	c0.5-0.5,0.8-1.1,1.1-1.8C312.5,155.9,312.7,155.1,312.7,154.2L312.7,154.2L312.7,154.2z"/>
<path class="st0" d="M330.6,155l-0.2,0.2c-0.8,0-1.5,0-2.2,0c-0.7,0-1.5,0-2.6,0h-1.4c-1.4,0-2.5,0-3.2,0c0,1.5,0.4,2.6,1.2,3.5
	c0.8,0.9,1.9,1.3,3.3,1.3c1.7,0,3.1-0.5,4.4-1.6l0.2,0.1c0,0.3-0.1,0.6-0.1,1c0,0.4-0.1,0.9-0.1,1.4l-0.1,0.2
	c-0.8,0.4-1.5,0.6-2.2,0.8c-0.7,0.2-1.4,0.2-2.2,0.2c-1.5,0-2.9-0.3-3.9-0.9c-1.1-0.6-1.9-1.4-2.5-2.5c-0.6-1.1-0.9-2.4-0.9-3.9
	c0-1,0.1-2,0.4-2.9s0.7-1.7,1.2-2.4c0.5-0.7,1.2-1.2,2.1-1.6c0.8-0.4,1.8-0.6,2.8-0.6h0.1c1.3,0,2.4,0.3,3.4,1c1,0.7,1.7,1.6,2,2.7
	C330.4,152.1,330.6,153.4,330.6,155L330.6,155L330.6,155z M327.7,153v-0.4c0-0.3-0.1-0.6-0.2-1c-0.2-0.7-0.6-1.3-1.1-1.7
	c-0.5-0.4-1.2-0.6-1.9-0.6c-1,0-1.8,0.4-2.5,1.1c-0.7,0.7-1,1.6-1.1,2.6h3.1c0.6,0,1.2,0,1.7,0C326.2,153,326.9,153,327.7,153
	L327.7,153L327.7,153z"/>
<path class="st0" d="M340.5,147.6c-0.2,1.1-0.4,2.1-0.5,2.8l-0.2,0.1c-0.4-0.2-0.8-0.2-1.1-0.2c-0.8,0-1.4,0.3-1.7,1
	c-0.3,0.6-0.5,1.4-0.5,2.3c0,3.3,0.1,6,0.2,8.1l-0.1,0.2c-1.3,0-2.3,0.1-2.9,0.1l-0.1-0.2v-1.2c0-0.6,0-1.4,0-2.4c0-1,0-2,0-2.9
	c0-3.2-0.1-5.5-0.3-7l0.2-0.2c1.1-0.2,2.1-0.4,2.8-0.5l0.2,0.2l-0.1,2.3c0.3-0.8,0.8-1.5,1.3-1.9c0.5-0.4,1.2-0.7,2-0.7
	c0.2,0,0.5,0,0.8,0.1L340.5,147.6L340.5,147.6z"/>
<path class="st0" d="M353.1,161.7l-0.1,0.1c-1.2,0-2.1,0.1-2.7,0.1l-0.1-0.2v-1c-1,0.9-2.3,1.4-3.7,1.4c-1.4,0-2.5-0.4-3.4-1.3
	c-0.9-0.8-1.3-1.9-1.3-3.3c0-1,0.2-1.8,0.7-2.5c0.4-0.7,1-1.2,1.8-1.5c0.7-0.4,1.6-0.7,2.6-0.9c1-0.2,2.1-0.4,3.4-0.5V152
	c0-0.9-0.2-1.5-0.6-1.9c-0.4-0.4-1-0.6-1.9-0.6c-0.7,0-1.4,0.1-2,0.3c-0.7,0.2-1.4,0.4-2.1,0.8l-0.2-0.1c0-0.3,0-0.7,0.1-1.1
	c0-0.4,0-0.7,0-0.9c0.1-0.1,0.2-0.1,0.2-0.2c0.1,0,0.2-0.1,0.3-0.1s0.3-0.1,0.3-0.1c0.6-0.2,1.3-0.4,2-0.5c0.7-0.1,1.4-0.2,2-0.2
	c1.5,0,2.7,0.4,3.5,1.1c0.8,0.7,1.3,1.8,1.3,3.3v4.5C353,158.4,353,160.2,353.1,161.7L353.1,161.7L353.1,161.7z M350.2,158.8v-4.5
	c-1.7,0.2-3,0.5-4,0.9c-1,0.4-1.5,1.2-1.5,2.3c0,0.7,0.2,1.3,0.7,1.8c0.5,0.5,1.1,0.7,1.8,0.7C348.4,160,349.4,159.6,350.2,158.8
	L350.2,158.8L350.2,158.8z"/>
<path class="st0" d="M363.1,147.8c-0.1,0.6-0.1,1.3-0.1,1.9l-0.2,0.2c-1.3,0-2.3-0.1-2.9-0.1c0,0.6,0,1.5,0,2.6c0,1.1,0,2.1,0,3.1
	v1.1c0,0.7,0,1.3,0.1,1.8c0.1,0.5,0.2,0.9,0.4,1.1c0.2,0.2,0.6,0.3,1.1,0.3c0.4,0,0.8-0.1,1.3-0.2l0.2,0.1c0,0.2-0.1,0.8-0.1,1.9
	l-0.1,0.2c-0.7,0.2-1.3,0.2-2,0.2c-1.8,0-2.9-0.6-3.4-1.7c-0.1-0.3-0.2-0.7-0.3-1.2c0-0.5-0.1-1-0.1-1.5c0-0.8,0-1.5,0-2.1
	c0-0.5,0-1.2,0-1.9c0-0.8,0-1.4,0-2.1c0-0.6,0-1.2,0-1.6c-0.9,0-1.5,0.1-2,0.1l-0.1-0.2c0-0.4,0.1-1.1,0.1-2l0.2-0.2
	c0.2,0,0.4,0,0.5,0c0.1,0,0.3,0,0.4,0c0.2,0,0.3,0,0.4,0c0.1,0,0.3,0,0.5,0c0-0.7,0-1.8-0.1-3.3l0.1-0.2c0.9-0.2,1.8-0.5,2.8-0.8
	l0.2,0.1c-0.1,1.2-0.1,2.6-0.1,4.1l3-0.1L363.1,147.8L363.1,147.8z"/>
<path class="st0" d="M377.4,161.7l-0.1,0.2c-1.2,0-2.1,0.1-2.7,0.1l-0.2-0.2l0.1-1.1c-0.5,0.4-1,0.6-1.4,0.9
	c-0.4,0.2-0.9,0.4-1.3,0.5c-0.5,0.1-1,0.2-1.5,0.2H370c-1.4,0-2.4-0.3-3.1-1c-0.7-0.6-1.1-1.4-1.3-2.4c-0.2-1-0.3-2.2-0.3-3.6v-1.5
	c0-2.6,0-4.5-0.1-5.8l0.1-0.2c1.3,0,2.2-0.1,2.8-0.1l0.2,0.2l-0.1,6v1.9c0,0.8,0.1,1.5,0.2,2.2c0.1,0.6,0.4,1.1,0.8,1.5
	c0.4,0.4,1,0.6,1.8,0.6c0.6,0,1.2-0.1,1.8-0.4c0.5-0.2,1.1-0.6,1.7-1.1v-6.3c0-1.5-0.1-3-0.2-4.3l0.2-0.2c1.2,0,2.2-0.1,2.8-0.1
	l0.1,0.2c0,1,0,2.1-0.1,3.1c0,1,0,2.1,0,3.1C377.2,155.9,377.3,158.5,377.4,161.7L377.4,161.7L377.4,161.7z"/>
<path class="st0" d="M393.3,161.7l-0.2,0.2c-1.2,0-2.1,0.1-2.7,0.1l-0.2-0.2c0-1.5,0-3.6,0-6.5v-1.3c0-0.8-0.1-1.5-0.2-2.1
	c-0.1-0.6-0.4-1.1-0.7-1.5c-0.4-0.4-0.9-0.6-1.6-0.6c-0.7,0-1.3,0.1-1.8,0.4c-0.5,0.3-1.1,0.6-1.8,1.1v3c0,1.4,0,2.6,0,3.8
	c0,1.2,0.1,2.4,0.2,3.6l-0.2,0.2c-1.3,0-2.2,0.1-2.9,0.1l-0.1-0.2c0-0.8,0-1.7,0.1-2.5c0-0.8,0-1.7,0-2.5c0-1.5,0-2.9-0.1-4.3
	c-0.1-1.4-0.1-2.8-0.2-4.2l0.2-0.2c1-0.2,1.9-0.3,2.9-0.5l0.2,0.2l0,1.4c0.8-0.6,1.6-1,2.4-1.3c0.7-0.3,1.6-0.4,2.5-0.4
	c0.5,0,0.9,0.1,1.3,0.2c0.4,0.1,0.8,0.3,1.1,0.5c0.3,0.2,0.6,0.5,0.9,0.8c0.3,0.3,0.4,0.7,0.6,1.2c0.2,0.7,0.3,1.6,0.3,2.9v3.2
	C393.2,158.4,393.2,160.2,393.3,161.7L393.3,161.7L393.3,161.7z"/>
<path class="st0" d="M408.9,147.9c0,0.4-0.1,1-0.1,1.8l-0.2,0.1l-2.3-0.1c0.4,0.4,0.8,0.8,1,1.3c0.2,0.5,0.3,1.1,0.3,1.7
	c0,1-0.2,1.8-0.7,2.5c-0.5,0.7-1.1,1.3-1.9,1.6c-0.8,0.4-1.7,0.6-2.7,0.6c-0.1,0-0.3,0-0.5,0c-0.2,0-0.4,0-0.7-0.1l-0.8,1.2
	c0.5,0.1,1.2,0.3,2.3,0.6c0.3,0.1,0.7,0.1,1.1,0.2c0.5,0.1,0.9,0.2,1.3,0.3c0.4,0.1,0.8,0.3,1.1,0.4c0.4,0.2,0.7,0.3,0.9,0.6
	c1,0.8,1.5,1.9,1.5,3.1c0,0.7-0.2,1.3-0.5,2c-0.5,1-1.3,1.7-2.4,2.1c-1.1,0.5-2.2,0.7-3.4,0.7h-0.1c-1.6,0-3-0.4-4.2-1.1
	c-1.2-0.7-1.9-1.8-1.9-3.2c0-0.8,0.2-1.5,0.6-2.1c0.4-0.6,1-1.2,1.8-1.8c-0.6-0.3-1-0.5-1.3-0.6l0-0.3c0.5-0.8,1.2-1.7,1.8-2.8
	c-0.8-0.3-1.5-0.9-1.9-1.6c-0.5-0.7-0.7-1.6-0.7-2.5c0-1.2,0.3-2.3,1-3.1c0.6-0.8,1.3-1.3,2.1-1.5c0.8-0.3,1.8-0.4,3-0.4
	c0.3,0,0.6,0,1.1,0c0.5,0,0.9,0,1.1,0c0.7,0,1.3,0,1.9,0c0.6,0,1.3,0,2.2,0L408.9,147.9L408.9,147.9z M404.8,152.7
	c0-0.6-0.1-1.2-0.3-1.6c-0.2-0.5-0.5-0.9-0.9-1.1c-0.4-0.3-0.9-0.4-1.6-0.4c-0.6,0-1.1,0.1-1.5,0.4c-0.4,0.3-0.8,0.7-1,1.1
	c-0.2,0.5-0.3,1-0.3,1.6c0,0.9,0.3,1.6,0.8,2.2c0.5,0.6,1.2,0.9,2.1,0.9c0.6,0,1.1-0.1,1.5-0.4c0.4-0.2,0.7-0.6,0.9-1
	C404.7,153.8,404.8,153.3,404.8,152.7L404.8,152.7L404.8,152.7z M405.6,164.4c0-0.8-0.3-1.4-0.8-1.7c-0.6-0.3-1.4-0.6-2.5-0.9
	l-2-0.5c-0.2,0.3-0.5,0.5-0.6,0.7c-0.2,0.2-0.3,0.4-0.5,0.6c-0.2,0.2-0.3,0.5-0.4,0.8c-0.1,0.3-0.1,0.6-0.1,0.9
	c0,0.9,0.4,1.6,1.1,2.1c0.7,0.5,1.5,0.7,2.5,0.7c0.9,0,1.6-0.2,2.3-0.6C405.3,165.8,405.6,165.2,405.6,164.4L405.6,164.4
	L405.6,164.4z"/>
<path class="st1" d="M377.6,58.1l-0.1,0.3c-1.7,0-3,0.1-3.9,0.1l-0.2-0.1c-1.3-2.7-2.3-4.6-3-5.7c-0.2,0-0.4,0-0.5,0
	c-0.1,0-0.3,0-0.5,0v0.4c0,1.6,0.1,3.4,0.2,5.2l-0.1,0.1c-1.2,0-2.4,0-3.6,0.1l-0.1-0.1c0.1-0.8,0.1-1.8,0.1-2.9c0-1,0-1.9,0-2.7
	c0-0.8,0-1.9,0-3.1c0-1.3,0-2.4-0.1-3.4c0-1,0-1.8-0.1-2.4l0.1-0.1c0.6,0,1.1,0,1.4,0c0.4,0,0.7,0,1.1,0c0.4,0,0.8,0,1.4,0h1.9
	c0.9,0,1.7,0.1,2.4,0.4c0.7,0.3,1.3,0.8,1.7,1.4c0.4,0.6,0.6,1.4,0.6,2.4c0,0.5-0.1,1-0.2,1.4c-0.1,0.4-0.3,0.8-0.6,1.1
	c-0.3,0.3-0.6,0.7-1,0.9c-0.3,0.2-0.6,0.3-1,0.5c0.5,1,1.3,2.1,2.1,3.5C376.5,56.6,377.1,57.5,377.6,58.1L377.6,58.1L377.6,58.1z
	 M372.7,48c0-0.7-0.2-1.2-0.7-1.4c-0.4-0.3-1-0.4-1.8-0.4c-0.4,0-0.7,0-0.8,0c0,0.4,0,0.9,0,1.7v2.4h0.3c0.9,0,1.6-0.2,2.1-0.5
	S372.7,48.9,372.7,48L372.7,48L372.7,48z"/>
<path class="st2" d="M382.8,51.6c0,6.6-5.4,12-12.1,12c-6.7,0-12.1-5.4-12.1-12c0-6.6,5.4-12,12.1-12c6.7,0,12.1,5.3,12.1,11.9"/>
</svg>
